<?xml version="1.0" encoding="UTF-8"?>
<svg width="300px" height="60px" viewBox="0 0 300 60" version="1.1" xmlns="http://www.w3.org/2000/svg" xmlns:xlink="http://www.w3.org/1999/xlink">
    <!-- Generator: Sketch 59 (86127) - https://sketch.com -->
    <title>PR</title>
    <desc>Created with Sketch.</desc>
    <defs>
        <path d="M0,4.99952863 C0,2.23836521 2.24229097,0 5.00325107,0 L294.996749,0 C297.759968,0 300,2.24256556 300,4.99952863 L300,60 L0,60 L0,4.99952863 Z" id="path-1"></path>
        <linearGradient x1="50%" y1="0%" x2="50%" y2="100%" id="linearGradient-3">
            <stop stop-color="#FFFFFF" offset="0%"></stop>
            <stop stop-color="#F0F0F0" offset="100%"></stop>
        </linearGradient>
        <polygon id="path-4" points="14 33.8222389 8.12214748 38.0901699 10.3648348 31.1811368 4.48943484 26.9098301 11.7533444 26.9077438 14 20 16.2466556 26.9077438 23.5105652 26.9098301 17.6351652 31.1811368 19.8778525 38.0901699"></polygon>
        <filter x="-0.1%" y="-2.5%" width="100.1%" height="100.5%" filterUnits="objectBoundingBox" id="filter-5">
            <feOffset dx="0" dy="1" in="SourceAlpha" result="shadowOffsetOuter1"></feOffset>
            <feColorMatrix values="0 0 0 0 0   0 0 0 0 0   0 0 0 0 0  0 0 0 0.06 0" type="matrix" in="shadowOffsetOuter1"></feColorMatrix>
        </filter>
    </defs>
    <g id="Symbols" stroke="none" stroke-width="1" fill="none" fill-rule="evenodd">
        <g id="VozDePRSideBar">
            <g id="PR">
                <mask id="mask-2" fill="white">
                    <use xlink:href="#path-1"></use>
                </mask>
                <path stroke="#F5F5F5" stroke-width="0.5" d="M0.25,59.75 L299.75,59.75 L299.75,4.99952863 C299.75,2.37919525 297.620455,0.25 294.996749,0.25 L5.00325107,0.25 C2.37952284,0.25 0.25,2.37727497 0.25,4.99952863 L0.25,59.75 Z"></path>
                <path d="M300,48 L300,60 L0,60 L0,48 L300,48 Z M300,0 L300,12 L0,12 L0,0 L300,0 Z M0,24 L300,24 L300,36 L0,36 L0,24 Z" id="Combined-Shape" fill="#EC220D" mask="url(#mask-2)"></path>
                <polygon id="Rectangle-83" fill="#1B4EA0" mask="url(#mask-2)" points="0 0 40 30 0 60"></polygon>
                <g id="Star-27" mask="url(#mask-2)">
                    <use fill="black" fill-opacity="1" filter="url(#filter-5)" xlink:href="#path-4"></use>
                    <use fill="url(#linearGradient-3)" fill-rule="evenodd" xlink:href="#path-4"></use>
                </g>
            </g>
        </g>
    </g>
</svg>