<?xml version="1.0" standalone="no"?>
<!DOCTYPE svg PUBLIC "-//W3C//DTD SVG 20010904//EN"
 "http://www.w3.org/TR/2001/REC-SVG-20010904/DTD/svg10.dtd">
<svg version="1.0" xmlns="http://www.w3.org/2000/svg"
 width="260.000000pt" height="260.000000pt" viewBox="0 0 260.000000 260.000000"
 preserveAspectRatio="xMidYMid meet">
<metadata>
Created by potrace 1.11, written by Peter Selinger 2001-2013
</metadata>
<g transform="translate(0.000000,260.000000) scale(0.100000,-0.100000)"
fill="#000000" stroke="none">
<path d="M1583 2408 c-43 -21 -44 -55 -7 -205 19 -76 36 -147 39 -158 2 -11
36 -148 75 -305 40 -157 73 -292 75 -300 2 -8 11 -44 20 -80 9 -36 19 -76 21
-90 3 -14 9 -38 14 -55 54 -187 58 -195 103 -200 56 -6 87 57 65 130 -5 16
-13 48 -18 70 -5 22 -27 114 -50 205 -23 91 -44 176 -46 190 -3 14 -9 36 -14
50 -4 14 -14 50 -21 80 -6 30 -15 66 -20 80 -8 24 -54 210 -69 280 -38 170
-72 277 -96 298 -28 24 -38 26 -71 10z"/>
<path d="M2207 2248 c-114 -112 -138 -145 -116 -159 8 -5 18 -9 23 -9 5 0 63
54 129 120 100 101 117 123 107 135 -7 8 -18 15 -26 15 -7 0 -60 -46 -117
-102z"/>
<path d="M1433 2193 c-70 -122 -212 -215 -443 -291 -83 -27 -332 -96 -398
-110 -16 -3 -21 -10 -17 -23 3 -11 7 -28 10 -38 3 -11 7 -28 10 -38 5 -26 136
-566 140 -581 6 -17 20 -16 152 19 65 17 129 33 142 35 14 3 28 7 32 9 7 5 38
10 135 23 140 19 380 -1 476 -39 48 -19 57 -8 43 53 -29 121 -76 324 -79 343
-8 42 -166 641 -174 658 -6 16 -11 13 -29 -20z"/>
<path d="M2465 1925 c-174 -32 -285 -69 -285 -96 0 -10 4 -20 9 -23 10 -7 129
16 231 44 41 11 87 23 102 26 15 4 29 12 32 20 6 16 -3 45 -13 43 -3 0 -37 -7
-76 -14z"/>
<path d="M1886 1912 c-3 -5 2 -37 10 -73 24 -100 25 -103 30 -124 2 -11 10
-42 17 -68 l13 -49 24 20 c23 18 25 28 25 94 0 59 -5 83 -25 123 -25 48 -82
95 -94 77z"/>
<path d="M335 1716 c-126 -41 -160 -59 -207 -109 -43 -44 -60 -79 -78 -159
-10 -46 -10 -68 3 -130 30 -148 92 -240 194 -284 32 -14 67 -30 79 -36 11 -5
38 -42 58 -81 74 -142 169 -305 193 -333 20 -23 33 -29 67 -29 33 0 54 9 107
47 76 54 99 84 99 129 0 42 -29 80 -82 106 -59 30 -81 55 -118 138 l-31 70 22
18 c25 20 31 -21 -52 322 -22 94 -42 177 -44 185 -10 49 -38 147 -46 162 -14
25 -49 22 -164 -16z"/>
<path d="M2230 1528 c0 -22 8 -27 78 -48 214 -63 242 -67 242 -30 0 13 -16 24
-52 38 -92 34 -161 53 -215 59 -51 5 -53 4 -53 -19z"/>
<path d="M953 930 c-29 -12 -43 -65 -43 -164 0 -142 39 -242 90 -229 31 8 124
107 180 191 47 69 51 79 48 125 -2 35 -8 53 -21 61 -21 13 -18 17 -95 -128
-29 -55 -55 -102 -58 -105 -3 -3 -5 26 -4 64 3 116 0 149 -13 166 -16 20 -56
30 -84 19z"/>
<path d="M1466 918 c-113 -24 -215 -140 -217 -246 -2 -62 19 -94 78 -123 148
-72 333 34 333 191 0 108 -68 158 -148 110 l-32 -20 30 -41 c66 -92 12 -224
-76 -186 -58 25 -53 153 8 227 24 29 76 60 101 60 23 0 45 16 36 25 -10 8 -78
11 -113 3z"/>
<path d="M1772 895 c-32 -14 -52 -47 -52 -87 0 -20 4 -21 63 -15 34 4 72 10
85 13 12 3 22 2 22 -2 0 -5 -42 -52 -92 -104 -113 -118 -123 -132 -109 -158
23 -44 173 -71 242 -44 42 17 75 72 70 118 -1 7 -19 7 -61 0 -33 -5 -62 -7
-65 -4 -4 3 28 56 69 117 42 61 76 120 76 130 0 24 -14 29 -119 36 -47 4 -88
8 -91 10 -3 2 -20 -3 -38 -10z"/>
<path d="M1173 547 c-6 -6 -13 -20 -16 -30 -4 -10 -11 -16 -15 -13 -12 7 -48
-32 -61 -66 -11 -30 5 -53 32 -42 11 4 14 14 10 39 -3 19 -1 35 6 39 6 4 11 4
12 -1 0 -4 2 -20 3 -35 2 -31 19 -53 34 -44 6 3 11 31 11 61 0 30 2 63 6 74 7
23 -9 36 -22 18z"/>
<path d="M1238 483 c-22 -26 -30 -69 -15 -80 19 -16 45 -11 64 10 17 20 17 20
-1 13 -19 -6 -19 -6 -3 12 26 28 22 62 -6 62 -13 0 -31 -8 -39 -17z m23 -46
c-13 -13 -15 1 -4 30 7 17 8 17 11 -1 2 -10 -1 -23 -7 -29z"/>
<path d="M736 389 c-19 -17 -19 -18 -2 -19 12 0 16 -5 12 -15 -20 -52 -47
-156 -44 -169 2 -13 7 -14 28 -3 19 9 31 31 49 90 24 75 41 99 41 56 0 -11 -9
-34 -21 -50 l-20 -29 21 0 c48 0 90 50 82 98 -8 49 -103 76 -146 41z"/>
<path d="M1394 392 c-6 -4 -19 -22 -29 -39 -11 -18 -22 -33 -25 -33 -4 0 -6
-97 -2 -126 3 -18 39 -23 58 -9 12 8 14 14 6 19 -20 12 -14 73 10 95 16 16 18
24 10 34 -6 7 -9 22 -6 34 6 23 -6 36 -22 25z"/>
<path d="M1768 393 c-18 -5 -26 -33 -9 -33 5 0 -2 -34 -15 -75 -27 -86 -29
-105 -11 -105 27 0 40 21 66 99 29 88 44 105 49 54 2 -24 -2 -35 -17 -45 -28
-17 -26 -54 4 -83 28 -29 60 -32 70 -8 4 12 -2 24 -20 39 l-27 21 26 26 c36
36 34 64 -5 95 -18 14 -84 23 -111 15z"/>
<path d="M1967 393 c-13 -12 -7 -43 7 -43 19 0 28 14 20 34 -7 17 -16 20 -27
9z"/>
<path d="M952 333 c-18 -7 -44 -62 -50 -105 -5 -48 17 -60 58 -30 l28 21 16
-25 c14 -20 20 -22 36 -14 17 9 20 21 20 70 0 33 -4 60 -10 60 -5 0 -29 -17
-52 -37 -29 -26 -39 -32 -33 -18 22 54 17 88 -13 78z"/>
<path d="M1155 330 c-58 -23 -96 -117 -60 -144 10 -7 28 -11 39 -8 32 8 77 42
70 53 -4 6 -13 4 -23 -5 -10 -9 -21 -16 -25 -16 -5 0 6 13 23 29 32 30 40 68
19 89 -14 14 -16 14 -43 2z m6 -73 c-10 -26 -35 -40 -26 -14 19 54 28 71 32
56 2 -8 -1 -28 -6 -42z"/>
<path d="M1245 310 c-19 -38 -26 -82 -17 -113 7 -25 9 -26 26 -14 12 9 20 29
22 53 4 52 4 52 14 29 8 -19 8 -19 17 4 5 13 8 34 6 45 -6 31 -51 28 -68 -4z"/>
<path d="M1515 325 c-42 -17 -68 -50 -68 -85 0 -43 19 -60 68 -60 78 0 124 80
73 127 -35 31 -41 32 -73 18z m42 -12 c-13 -3 -16 -10 -11 -21 4 -10 9 -31 11
-48 4 -25 1 -32 -16 -37 -11 -3 -25 1 -31 8 -23 28 13 106 49 104 12 -1 12 -2
-2 -6z"/>
<path d="M2054 303 c-19 -20 -34 -42 -34 -49 0 -7 -3 -19 -6 -27 -8 -22 31
-58 53 -50 23 8 53 33 53 45 0 4 -11 6 -25 2 -27 -7 -30 1 -18 44 4 17 8 20
14 11 11 -19 41 8 37 34 -5 33 -38 29 -74 -10z"/>
<path d="M1947 301 c-19 -32 -23 -106 -6 -117 28 -17 59 65 45 120 -8 34 -18
33 -39 -3z"/>
<path d="M2200 324 c-19 -6 -47 -45 -55 -76 -15 -59 71 -94 128 -52 74 54 17
155 -73 128z m57 -11 c-13 -3 -16 -10 -11 -21 14 -35 16 -63 4 -77 -17 -20
-50 -1 -50 29 0 30 36 76 58 75 14 -1 14 -2 -1 -6z"/>
</g>
</svg>
