<?xml version="1.0" encoding="UTF-8"?>
<svg width="33px" height="32px" viewBox="0 0 33 32" version="1.1" xmlns="http://www.w3.org/2000/svg" xmlns:xlink="http://www.w3.org/1999/xlink">
    <!-- Generator: Sketch 59 (86127) - https://sketch.com -->
    <title>Bubble</title>
    <desc>Created with Sketch.</desc>
    <defs>
        <filter x="-2.7%" y="-11.2%" width="105.4%" height="122.5%" filterUnits="objectBoundingBox" id="filter-1">
            <feOffset dx="0" dy="0" in="SourceAlpha" result="shadowOffsetOuter1"></feOffset>
            <feGaussianBlur stdDeviation="5" in="shadowOffsetOuter1" result="shadowBlurOuter1"></feGaussianBlur>
            <feColorMatrix values="0 0 0 0 0   0 0 0 0 0   0 0 0 0 0  0 0 0 0.12 0" type="matrix" in="shadowBlurOuter1" result="shadowMatrixOuter1"></feColorMatrix>
            <feMerge>
                <feMergeNode in="shadowMatrixOuter1"></feMergeNode>
                <feMergeNode in="SourceGraphic"></feMergeNode>
            </feMerge>
        </filter>
    </defs>
    <g id="Symbols" stroke="none" stroke-width="1" fill="none" fill-rule="evenodd">
        <g id="PostCard" transform="translate(-15.000000, -137.000000)">
            <g id="Group-2-Copy-4" filter="url(#filter-1)">
                <g id="Bubble" transform="translate(24.000000, 145.000000)">
                    <rect id="Rectangle-path" x="0" y="0" width="16" height="16"></rect>
                    <path d="M7.99866667,14 L1.332,14 C1.06666667,14 0.826666667,13.8426667 0.721333333,13.6 C0.615333333,13.3566667 0.663333333,13.074 0.844,12.88 L2.38133333,11.224 C1.69266667,10.2613333 1.332,9.15666667 1.332,8 C1.332,4.69133333 4.32266667,2 7.99866667,2 C11.6746667,2 14.6653333,4.69133333 14.6653333,8 C14.6653333,11.3086667 11.6746667,14 7.99866667,14 Z M2.86066667,12.6666667 L7.99866667,12.6666667 C10.9393333,12.6666667 13.332,10.5733333 13.332,8 C13.332,5.42733333 10.9393333,3.33333333 7.99866667,3.33333333 C5.058,3.33333333 2.66533333,5.42733333 2.66533333,8 C2.66533333,9.02466667 3.044,10 3.76,10.8213333 C3.984,11.0786667 3.978,11.4633333 3.746,11.7133333 L2.86066667,12.6666667 Z" id="Shape" fill="#757575" fill-rule="nonzero"></path>
                </g>
            </g>
        </g>
    </g>
</svg>