<?xml version="1.0" encoding="UTF-8"?>
<svg width="20px" height="22px" viewBox="0 0 20 22" version="1.1" xmlns="http://www.w3.org/2000/svg" xmlns:xlink="http://www.w3.org/1999/xlink">
    <!-- Generator: Sketch 59 (86127) - https://sketch.com -->
    <title>Shape</title>
    <desc>Created with Sketch.</desc>
    <g id="Symbols" stroke="none" stroke-width="1" fill="none" fill-rule="evenodd">
        <g id="trashExport" transform="translate(-2.000000, -1.000000)" fill="#000000" fill-rule="nonzero">
            <path d="M10,1 L14,1 C15.5976809,1 16.9036609,2.24891996 16.9949073,3.82372721 L17,4 L17,5 L21,5 C21.5128358,5 21.9355072,5.38604019 21.9932723,5.88337887 L22,6 C22,6.51283584 21.6139598,6.93550716 21.1166211,6.99327227 L21,7 L20,7 L20,20 C20,21.5976809 18.75108,22.9036609 17.1762728,22.9949073 L17,23 L7,23 C5.40231912,23 4.09633912,21.75108 4.00509269,20.1762728 L4,20 L4,7 L3,7 C2.48716416,7 2.06449284,6.61395981 2.00672773,6.11662113 L2,6 C2,5.48716416 2.38604019,5.06449284 2.88337887,5.00672773 L3,5 L7,5 L7,4 C7,2.40231912 8.24891996,1.09633912 9.82372721,1.00509269 L10,1 L14,1 L10,1 Z M18,7 L6,7 L6,20 C6,20.5128358 6.38604019,20.9355072 6.88337887,20.9932723 L7,21 L17,21 C17.5128358,21 17.9355072,20.6139598 17.9932723,20.1166211 L18,20 L18,7 Z M10,10 C10.5128358,10 10.9355072,10.3860402 10.9932723,10.8833789 L11,11 L11,17 C11,17.5522847 10.5522847,18 10,18 C9.48716416,18 9.06449284,17.6139598 9.00672773,17.1166211 L9,17 L9,11 C9,10.4477153 9.44771525,10 10,10 Z M14,10 C14.5128358,10 14.9355072,10.3860402 14.9932723,10.8833789 L15,11 L15,17 C15,17.5522847 14.5522847,18 14,18 C13.4871642,18 13.0644928,17.6139598 13.0067277,17.1166211 L13,17 L13,11 C13,10.4477153 13.4477153,10 14,10 Z M14,3 L10,3 C9.48716416,3 9.06449284,3.38604019 9.00672773,3.88337887 L9,4 L9,5 L15,5 L15,4 C15,3.48716416 14.6139598,3.06449284 14.1166211,3.00672773 L14,3 Z" id="Shape"></path>
        </g>
    </g>
</svg>